<svg xmlns="http://www.w3.org/2000/svg" width="256" height="256"><g stroke-width="0" stroke-miterlimit="10" fill="#000"><path d="M121.587 197.384H62.201a2.81 2.81 0 01-2.81-2.81V22.237a2.811 2.811 0 012.81-2.81h93.688a2.81 2.81 0 012.81 2.81v126.124c0 1.554-1.256 2.81-2.81 2.81s-2.81-1.256-2.81-2.81V25.047H65.011v166.72h56.576a2.81 2.81 0 110 5.617z"/><path d="M109.044 138.015c-14.913 0-27.047-12.134-27.047-27.047s12.131-27.046 27.047-27.046 27.046 12.131 27.046 27.046-12.134 27.047-27.046 27.047zm0-48.47c-11.814 0-21.427 9.61-21.427 21.426s9.61 21.427 21.427 21.427 21.426-9.61 21.426-21.427-9.613-21.426-21.426-21.426zM84.948 166.053a2.81 2.81 0 01-2.81-2.81v-21.32a2.81 2.81 0 115.62 0v21.32a2.807 2.807 0 01-2.81 2.81zM133.28 82.826a2.81 2.81 0 01-2.81-2.81v-18.74c-7.014-1.185-12.56-6.735-13.75-13.749h-15.213c-1.186 7.014-6.735 12.564-13.75 13.75v18.74a2.811 2.811 0 01-5.62 0V58.7a2.811 2.811 0 012.81-2.81c6.16 0 11.173-5.013 11.173-11.176a2.811 2.811 0 012.81-2.81h20.365a2.811 2.811 0 012.81 2.81c0 6.163 5.013 11.176 11.172 11.176a2.81 2.81 0 012.81 2.81v21.316a2.807 2.807 0 01-2.807 2.81z"/><path d="M171.409 125.457a2.81 2.81 0 01-2.81-2.81c0-49.45 3.889-87.335 11.883-115.62H90.545a2.811 2.811 0 010-5.62h93.689c.888 0 1.728.421 2.259 1.138.528.713.688 1.638.43 2.49-8.548 28.108-12.704 66.582-12.704 117.612a2.807 2.807 0 01-2.81 2.81zM193.512 220.59h-4.667c.775-7.49 1.897-14.146 3.007-20.556 2.281-13.173 4.251-24.554 2.22-38.716-1.383-9.624-7.843-17.824-16.734-21.345l-7.233-3.27a2.807 2.807 0 00-3.718 1.402 2.808 2.808 0 001.403 3.717l7.356 3.325c7.146 2.832 12.266 9.334 13.362 16.97 1.908 13.282.008 24.255-2.192 36.959-1.152 6.671-2.324 13.603-3.116 21.513h-50.82c2.066-9.933 6.792-18.793 13.556-25.194.557-.528.877-1.262.88-2.032s-.307-1.503-.863-2.037l-15.357-14.77a12.262 12.262 0 00-4.173-2.399 3.17 3.17 0 00-.356-.093l-15.25-2.973a9.796 9.796 0 01-6.295-11.479l.472-2.048c1.153-4.99 6.045-8.278 11.266-7.492l14.735 1.285a6.68 6.68 0 012.777 1.11l28.448 20.043a2.812 2.812 0 003.24-4.594l-28.462-20.052c-1.53-1.065-3.308-1.779-5.328-2.082l-14.736-1.285c-7.95-1.225-15.607 3.957-17.416 11.805l-.472 2.049a15.4 15.4 0 0010.15 18.124c.117.04.233.07.353.093l15.245 2.973c.775.284 1.478.694 2.003 1.152l13.204 12.704c-6.738 7.225-11.372 16.72-13.339 27.19h-5.513a2.81 2.81 0 00-2.81 2.81v28.1a2.81 2.81 0 002.81 2.81h72.366a2.807 2.807 0 002.81-2.81v-28.098a2.812 2.812 0 00-2.813-2.81zm-2.81 28.097h-66.746v-22.478h66.746v22.478z"/></g></svg>