<?xml version="1.0" encoding="UTF-8" standalone="no"?>
<svg
   version="1.1"
   x="0px"
   y="0px"
   viewBox="0 0 797.98999 797.9964"
   xml:space="preserve"
   id="svg6"
   sodipodi:docname="noun-money-transfer-6423872.svg"
   width="797.98999"
   height="797.9964"
   xmlns:inkscape="http://www.inkscape.org/namespaces/inkscape"
   xmlns:sodipodi="http://sodipodi.sourceforge.net/DTD/sodipodi-0.dtd"
   xmlns="http://www.w3.org/2000/svg"
   xmlns:svg="http://www.w3.org/2000/svg"><defs
   id="defs6" /><sodipodi:namedview
   id="namedview6"
   pagecolor="#ffffff"
   bordercolor="#000000"
   borderopacity="0.25"
   inkscape:showpageshadow="2"
   inkscape:pageopacity="0.0"
   inkscape:pagecheckerboard="0"
   inkscape:deskcolor="#d1d1d1" />&#10;    <g
   id="g5"
   transform="translate(-113,-113.0036)">&#10;        <rect
   x="688"
   y="817"
   width="80"
   height="30"
   id="rect1" />&#10;        <rect
   x="800"
   y="817"
   width="32"
   height="30"
   id="rect2" />&#10;        <rect
   x="256"
   y="177"
   width="80"
   height="30"
   id="rect3" />&#10;        <rect
   x="192"
   y="177"
   width="32"
   height="30"
   id="rect4" />&#10;        <path
   d="m 492.34,419.02 h 39.33 c 18.74,0 33.99,15.25 33.99,33.99 h 50 c 0,-44.52 -34.82,-81.04 -78.66,-83.8 v -24.52 h -50 v 24.52 c -43.83,2.76 -78.66,39.29 -78.66,83.8 0,46.31 37.68,83.99 83.99,83.99 h 39.33 c 18.74,0 33.99,15.25 33.99,33.99 0,18.74 -15.25,33.99 -33.99,33.99 h -39.33 c -18.74,0 -33.99,-15.25 -33.99,-33.99 h -50 c 0,44.52 34.82,81.04 78.66,83.8 v 24.52 h 50 V 654.8 c 43.83,-2.76 78.66,-39.29 78.66,-83.8 0,-46.31 -37.68,-83.99 -83.99,-83.99 h -39.33 c -18.74,0 -33.99,-15.25 -33.99,-33.99 0,-18.74 15.24,-34 33.99,-34 z"
   id="path4" />&#10;        <path
   d="m 905.97,244.79 -144,-128 c -4.42,-3.92 -10.72,-4.89 -16.11,-2.47 -5.39,2.42 -8.85,7.78 -8.85,13.68 v 49 H 384 v 30 h 368 c 8.28,0 15,-6.72 15,-15 V 161.4 L 873.42,256 767,350.6 V 320 c 0,-8.28 -6.72,-15 -15,-15 h -64 v 0.92 C 638.97,263.91 577.25,241 512,241 439.61,241 371.56,269.19 320.37,320.37 269.18,371.55 241,439.61 241,512 c 0,40.12 8.67,78.9 25.1,114.22 -1.46,0.63 -2.84,1.48 -4.07,2.57 l -144,128 c -3.2,2.85 -5.03,6.93 -5.03,11.21 0,4.28 1.83,8.36 5.03,11.21 l 144,128 c 2.8,2.49 6.36,3.79 9.97,3.79 2.08,0 4.17,-0.43 6.14,-1.32 5.39,-2.42 8.85,-7.78 8.85,-13.68 v -49 h 353 V 817 H 272 c -8.28,0 -15,6.72 -15,15 v 30.6 L 150.58,768 257,673.4 V 704 c 0,8.28 6.72,15 15,15 h 64 v -0.92 C 385.03,760.09 446.75,783 512,783 584.39,783 652.44,754.81 703.63,703.63 754.82,652.45 783,584.39 783,512 c 0,-40.12 -8.67,-78.9 -25.11,-114.22 1.46,-0.63 2.84,-1.47 4.07,-2.57 l 144,-128 c 3.2,-2.85 5.03,-6.93 5.03,-11.21 0,-4.28 -1.82,-8.36 -5.02,-11.21 z M 287,663.18 c 6.04,8.94 12.63,17.57 19.77,25.82 H 287 Z M 512,753 C 379.11,753 271,644.89 271,512 271,379.11 379.11,271 512,271 644.89,271 753,379.11 753,512 753,644.89 644.89,753 512,753 Z M 717.23,335 H 737 v 25.82 C 730.96,351.88 724.37,343.26 717.23,335 Z"
   id="path5" />&#10;    </g>&#10;</svg>
